<?xml version="1.0" standalone="no"?>
<!DOCTYPE svg PUBLIC "-//W3C//DTD SVG 20010904//EN"
 "http://www.w3.org/TR/2001/REC-SVG-20010904/DTD/svg10.dtd">
<svg version="1.0" xmlns="http://www.w3.org/2000/svg"
 width="535.000000pt" height="350.000000pt" viewBox="0 0 535.000000 350.000000"
 preserveAspectRatio="xMidYMid meet">

   <defs>
         
         <linearGradient
         id="objectBounding2"
         gradientUnits="objectBoundingBox">
             <stop offset="0" style="stop-color:#040DFF"/>
             <stop offset="1" style="stop-color:#0892FF"/>
         </linearGradient>
     </defs>

<g transform="translate(0.000000,350.000000) scale(0.100000,-0.100000)">
<path d="M1087 2432 l-687 -687 693 -693 692 -692 186 186 186 186 187 -185
188 -184 84 86 84 85 -84 86 c-47 47 -317 319 -600 605 l-516 520 327 327 328
328 98 -98 99 -99 -226 -224 c-124 -123 -226 -229 -226 -234 0 -6 309 -319
688 -698 l687 -687 693 693 692 692 -690 690 -690 690 -183 -183 c-100 -100
-187 -182 -192 -182 -5 0 -92 82 -192 182 l-183 183 -84 -84 -85 -84 600 -606
599 -606 -330 -330 -330 -330 -97 98 -98 97 230 230 230 230 -105 105 c-58 58
-366 368 -685 690 -320 322 -585 585 -591 585 -5 0 -318 -309 -697 -688z m795
241 l98 -98 -417 -418 -418 -417 415 -415 415 -414 -56 -58 c-30 -32 -74 -76
-97 -98 l-42 -39 -515 514 -515 515 512 512 c282 282 515 513 518 513 2 0 49
-44 102 -97z m1916 -416 l512 -512 -518 -518 -517 -517 -100 100 -100 100 418
418 417 417 -415 415 -415 415 97 97 c54 54 100 98 103 98 3 0 236 -231 518
-513z m-1123 -377 l140 " fill="url(#objectBounding2)"
         stroke="#000000" />
</g>
</svg>
